<?xml version="1.0" encoding="iso-8859-1"?>
<svg version="1.1" id="Layer_1" xmlns="http://www.w3.org/2000/svg" xmlns:xlink="http://www.w3.org/1999/xlink" x="0px" y="0px"
	 viewBox="0 0 500 500" style="enable-background:new 0 0 500 500;" xml:space="preserve">
<g>
	<path style="fill-rule:evenodd;clip-rule:evenodd;fill:#FFFFFF;" d="M212.256,258.355c7.014,0,16.489-0.512,23.157,0.297
		c7.062,0.855,11.088,4.199,12.101,11.098c1.156,7.875-1.593,13.775-6.936,16.152c-5.234,2.328-15.857,1.409-22.048,1.521V306.1
		l8.257,0.051l11.014,18.348c1.908,3.234,3.619,5.982,5.571,9.291c0.877,1.477,4.553,8.585,5.768,8.84l23.566-0.09l-23.846-39.657
		c0.58-0.552,5.603-2.515,6.914-3.304c17.819-10.702,16.141-37.822,5.973-49.368c-6.507-7.387-17.027-10.383-30.148-10.374
		c-13.473,0.013-26.956,0.053-40.421,0v102.789h20.972L212.256,258.355L212.256,258.355z"/>
	<path style="fill-rule:evenodd;clip-rule:evenodd;fill:#FFFFFF;" d="M281.288,339.47c5.261,2.887,22.758,4.384,29.628,4.603
		c10.355,0.325,20.897-0.853,28.991-4.975c7.027-3.581,12.81-9.576,14.846-19.089c3.39-15.842-3.127-27.197-16.265-33.284
		c-12.622-5.85-31.674-6.993-36.143-14.562c-2.675-4.533-0.758-10.038,2.35-12.131c3.66-2.469,8.536-3.122,13.846-3.113
		c14.493,0.015,17.995,2.295,29.855,4.467l-0.086-18.735c-10.81-2.385-18.081-4.441-30.149-4.432
		c-19.192,0.018-39.198,5.791-39.279,28.791c-0.14,40.693,54.962,26.333,54.537,47.288c-0.207,10.165-12.9,11.498-22.887,11.208
		c-11.871-0.343-18.685-2.366-29.36-4.7L281.288,339.47L281.288,339.47z"/>
	<polygon style="fill-rule:evenodd;clip-rule:evenodd;fill:#FFFFFF;" points="431.06,342.592 433.909,334.339 454.385,277.637
		454.388,342.611 474.991,342.618 475,239.835 447.81,239.89 438.379,265.599 420.011,317.006 410.988,342.605 431.06,342.592 	"/>
	<polygon style="fill-rule:evenodd;clip-rule:evenodd;fill:#FFFFFF;" points="386.874,277.391 397.321,304.924 402.525,318.783
		407.771,332.303 412.158,320.599 417.795,302.789 394.651,240.871 393.663,239.84 366.484,239.844 366.484,342.625 386.797,342.62
		386.874,277.391 	"/>
	<polygon style="fill-rule:evenodd;clip-rule:evenodd;fill:rgba(255,255,255,0.45);" points="25,155.875 60.677,155.875 60.677,202.324 25,202.324
		25,155.875 	"/>
	<polygon style="fill-rule:evenodd;clip-rule:evenodd;fill:rgba(255,255,255,0.7);" points="81.208,155.875 171.074,155.875 171.074,202.324
		81.208,202.324 81.208,155.875 	"/>
	<polygon style="fill-rule:evenodd;clip-rule:evenodd;fill:#FFFFFF;" points="190.931,155.875 475,155.875 475,202.324
		190.931,202.324 190.931,155.875 	"/>
</g>
</svg>
